<svg width="127" height="131" viewBox="0 0 127 131" fill="none" xmlns="http://www.w3.org/2000/svg">
<mask id="mask0_425_7" style="mask-type:luminance" maskUnits="userSpaceOnUse" x="0" y="0" width="127" height="131">
<path d="M0 0H127V131H0V0Z" fill="white"/>
</mask>
<g mask="url(#mask0_425_7)">
<path fill-rule="evenodd" clip-rule="evenodd" d="M97.6925 117.047V122.792C97.6925 127.307 101.359 130.974 105.875 130.974C110.396 130.974 114.062 127.307 114.062 122.792V99.0938C114.062 99.0677 114.062 99.0365 114.057 99.0104C114.036 96.7083 113.042 94.4271 111.14 92.8281C109.63 91.5573 107.792 90.9271 105.958 90.9115C105.927 90.9115 105.901 90.9115 105.875 90.9115H82.1665C77.6509 90.9115 73.9842 94.5781 73.9842 99.0938C73.9842 103.286 77.1457 106.745 81.2134 107.219C75.7446 109.438 69.7707 110.661 63.5155 110.661C37.4998 110.661 16.38 89.5469 16.38 63.5417C16.38 59.026 12.7134 55.3646 8.19255 55.3646C3.67692 55.3646 0.0102539 59.026 0.0102539 63.5417C0.0102539 98.5781 28.4634 127.026 63.5155 127.026C76.0936 127.026 87.8228 123.365 97.6925 117.047ZM12.9686 32.026C12.9946 34.3333 13.9842 36.6094 15.8853 38.2083C17.3957 39.4792 19.2394 40.1094 21.0728 40.125C21.0988 40.125 21.1248 40.125 21.1509 40.125H44.8592C49.3748 40.125 53.0467 36.4583 53.0467 31.9427C53.0467 27.75 49.8853 24.2917 45.8175 23.8177C51.2811 21.599 57.255 20.375 63.5155 20.375C89.5259 20.375 110.651 41.4896 110.651 67.4948C110.651 72.0104 114.318 75.6771 118.833 75.6771C123.354 75.6771 127.021 72.0104 127.021 67.4948C127.021 32.4583 98.5623 4.01563 63.5155 4.01563C50.9373 4.01563 39.203 7.67708 29.3384 13.9896V8.24479C29.3384 3.72917 25.6717 0.0625 21.1509 0.0625C16.6353 0.0625 12.9686 3.72917 12.9686 8.24479V31.9427C12.9686 31.974 12.9686 32 12.9686 32.026Z" fill="#5271FF"/>
</g>
</svg>
