<svg width="488" height="388" viewBox="0 0 488 388" fill="none" xmlns="http://www.w3.org/2000/svg">
<g clip-path="url(#clip0_131_921)">
<path d="M364.029 383.106C357.275 377.398 353.172 368.382 354.248 359.604C355.324 350.827 361.988 342.757 370.633 340.893C379.277 339.029 389.132 344.189 391.757 352.634C393.202 336.353 394.867 319.39 403.523 305.526C411.361 292.972 424.936 283.989 439.648 282.382C454.36 280.775 469.85 286.844 479.026 298.456C488.201 310.069 490.448 326.95 484.022 340.282C479.288 350.103 470.566 357.412 461.428 363.358C431.899 382.41 396.483 390.158 361.697 385.176" fill="#F2F2F2"/>
<path d="M464.478 287.181C452.338 297.069 441.202 308.128 431.229 320.197C415.622 339.021 402.992 360.127 393.78 382.778C393.106 384.43 395.789 385.15 396.456 383.516C411.528 346.703 435.59 314.256 466.44 289.143C467.825 288.015 465.852 286.062 464.478 287.181Z" fill="white"/>
<path d="M119.31 387.013H81.0016C79.7071 387.012 78.4661 386.497 77.5508 385.581C76.6355 384.666 76.1206 383.425 76.1191 382.131V302.509C76.1206 301.215 76.6355 299.974 77.5508 299.059C78.4661 298.143 79.7071 297.628 81.0016 297.627H119.31C120.604 297.628 121.845 298.143 122.761 299.059C123.676 299.974 124.191 301.215 124.192 302.509V382.131C124.191 383.425 123.676 384.666 122.761 385.581C121.845 386.497 120.604 387.012 119.31 387.013Z" fill="#3126E0"/>
<path d="M210.199 387.765H171.89C170.397 387.763 168.965 387.169 167.909 386.113C166.853 385.057 166.258 383.625 166.257 382.131V227.395C166.258 225.902 166.853 224.47 167.909 223.414C168.965 222.357 170.397 221.763 171.89 221.762H210.199C211.692 221.763 213.124 222.357 214.181 223.414C215.237 224.47 215.831 225.902 215.832 227.395V382.131C215.831 383.625 215.237 385.057 214.181 386.113C213.124 387.169 211.692 387.763 210.199 387.765ZM171.89 223.264C170.795 223.265 169.745 223.701 168.971 224.475C168.196 225.25 167.76 226.3 167.759 227.395V382.131C167.76 383.226 168.196 384.276 168.971 385.051C169.745 385.825 170.795 386.261 171.89 386.262H210.199C211.294 386.261 212.344 385.825 213.119 385.051C213.893 384.276 214.329 383.226 214.33 382.131V227.395C214.329 226.3 213.893 225.25 213.119 224.475C212.344 223.701 211.294 223.265 210.199 223.264H171.89Z" fill="#3F3D56"/>
<path d="M301.087 387.764H262.779C261.285 387.762 259.853 387.168 258.797 386.112C257.741 385.056 257.147 383.624 257.145 382.131V128.995C257.147 127.501 257.741 126.069 258.797 125.013C259.853 123.957 261.285 123.363 262.779 123.361H301.087C302.581 123.363 304.013 123.957 305.069 125.013C306.125 126.069 306.719 127.501 306.721 128.995V382.131C306.719 383.624 306.125 385.056 305.069 386.112C304.013 387.168 302.581 387.762 301.087 387.764ZM262.779 124.864C261.683 124.865 260.633 125.301 259.859 126.075C259.084 126.85 258.649 127.9 258.647 128.995V382.131C258.649 383.226 259.084 384.276 259.859 385.05C260.633 385.825 261.683 386.261 262.779 386.262H301.087C302.182 386.261 303.232 385.825 304.007 385.05C304.781 384.276 305.217 383.226 305.218 382.131V128.995C305.217 127.9 304.781 126.85 304.007 126.075C303.232 125.301 302.182 124.865 301.087 124.864H262.779Z" fill="#3F3D56"/>
<path d="M392.824 387.389H354.515C353.221 387.387 351.98 386.872 351.064 385.957C350.149 385.042 349.634 383.801 349.633 382.506V25.7125C349.634 24.4181 350.149 23.1771 351.064 22.2618C351.98 21.3465 353.221 20.8316 354.515 20.8301H392.824C394.118 20.8316 395.359 21.3465 396.274 22.2618C397.19 23.1771 397.705 24.4181 397.706 25.7125V382.506C397.705 383.801 397.19 385.042 396.274 385.957C395.359 386.872 394.118 387.387 392.824 387.389Z" fill="#3126E0"/>
<path d="M154.57 167.023C154.709 165.927 154.606 164.815 154.268 163.763C153.931 162.712 153.367 161.747 152.616 160.937C151.865 160.128 150.946 159.492 149.923 159.076C148.901 158.66 147.799 158.473 146.696 158.528L133.343 134.034L130.339 144.55L139.487 166.999C139.703 168.845 140.589 170.548 141.977 171.785C143.365 173.022 145.158 173.707 147.018 173.71C148.877 173.713 150.672 173.034 152.064 171.801C153.456 170.569 154.348 168.869 154.57 167.023Z" fill="#AAA6A7"/>
<path d="M51.6909 263.736L59.128 269.166L83.6115 243.062L72.6343 235.048L51.6909 263.736Z" fill="#AAA6A7"/>
<path d="M68.4306 286.545L45.0551 269.479L51.6485 260.448L65.9927 270.92C68.388 272.669 69.9905 275.297 70.4477 278.228C70.9049 281.158 70.1793 284.15 68.4306 286.545Z" fill="#2F2E41"/>
<path d="M91.0396 292.478L100.249 292.477L104.629 256.957L91.0381 256.958L91.0396 292.478Z" fill="#AAA6A7"/>
<path d="M118.009 301.028L89.0666 301.03L89.0661 289.847L106.826 289.847C109.792 289.847 112.636 291.024 114.733 293.121C116.83 295.218 118.009 298.063 118.009 301.028Z" fill="#2F2E41"/>
<path d="M118.696 153.94C118.696 153.94 123.203 197.507 111.936 227.553L103.673 284.64H89.4017L90.904 217.037L85.646 156.945C85.646 156.945 96.162 129.904 118.696 153.94Z" fill="#2F2E41"/>
<path d="M69.8723 156.945L84.8952 208.773L55.6006 255.344L70.2479 267.738L103.674 215.534L93.909 151.687L69.8723 156.945Z" fill="#2F2E41"/>
<path d="M108.183 40.722C118.372 40.722 126.632 32.4621 126.632 22.2731C126.632 12.0841 118.372 3.82422 108.183 3.82422C97.9942 3.82422 89.7344 12.0841 89.7344 22.2731C89.7344 32.4621 97.9942 40.722 108.183 40.722Z" fill="#AAA6A7"/>
<path d="M92.7824 47.6525C92.7824 47.6525 104.05 40.141 116.819 56.6662L120.199 160.7C120.199 160.7 110.434 147.179 90.1534 159.949C69.8725 172.718 65.3656 158.446 65.3656 158.446C65.3656 158.446 51.0939 51.0326 92.7824 47.6525Z" fill="#CCCCCC"/>
<path d="M115.91 56.4039C119.15 56.5791 122.212 57.9464 124.505 60.2428C126.798 62.5391 128.161 65.6023 128.332 68.8431L130.715 114.129L146.489 156.944L137.475 164.455L108.181 113.378L102.183 71.3938C101.908 69.4695 102.063 67.5082 102.637 65.6511C103.211 63.7939 104.19 62.0872 105.503 60.6536C106.815 59.2201 108.43 58.0954 110.229 57.3606C112.029 56.6257 113.969 56.299 115.91 56.4039Z" fill="#CCCCCC"/>
<path d="M94.6278 36.1123C97.6438 39.3251 103.245 37.6004 103.638 33.2113C103.669 32.8706 103.667 32.5276 103.631 32.1873C103.428 30.2432 102.305 28.4781 102.574 26.4253C102.635 25.9145 102.826 25.4276 103.127 25.0108C105.531 21.7925 111.173 26.4503 113.441 23.5368C114.832 21.7504 113.197 18.9376 114.264 16.9409C115.673 14.3056 119.845 15.6056 122.462 14.1624C125.373 12.5566 125.199 8.08996 123.282 5.37311C120.945 2.05981 116.848 0.291798 112.801 0.036972C108.754 -0.217854 104.736 0.876067 100.958 2.34836C96.6653 4.02115 92.4087 6.33303 89.7671 10.1074C86.5548 14.6974 86.2457 20.8683 87.8522 26.2354C88.8295 29.5004 92.1649 33.4888 94.6278 36.1123Z" fill="#2F2E41"/>
<path d="M487.106 387.446H0.894707C0.657953 387.445 0.431124 387.351 0.263955 387.183C0.0967866 387.015 0.00292969 386.788 0.00292969 386.552C0.00292969 386.315 0.0967866 386.088 0.263955 385.92C0.431124 385.752 0.657953 385.658 0.894707 385.657H487.106C487.343 385.658 487.57 385.752 487.737 385.92C487.904 386.088 487.998 386.315 487.998 386.552C487.998 386.788 487.904 387.015 487.737 387.183C487.57 387.351 487.343 387.445 487.106 387.446Z" fill="#3F3D56"/>
</g>
<defs>
<clipPath id="clip0_131_921">
<rect width="488" height="387.764" fill="white"/>
</clipPath>
</defs>
</svg>
