<svg width="127" height="97" viewBox="0 0 127 97" fill="none" xmlns="http://www.w3.org/2000/svg">
<mask id="mask0_425_28" style="mask-type:luminance" maskUnits="userSpaceOnUse" x="0" y="0" width="127" height="97">
<path d="M0 0H126.969V97H0V0Z" fill="white"/>
</mask>
<g mask="url(#mask0_425_28)">
<path d="M102.448 60.0781C104.417 60.0781 106.031 58.474 106.031 56.5104C106.031 54.5521 104.417 52.9479 102.448 52.9479C100.474 52.9479 98.8592 54.5521 98.8592 56.5104C98.8592 58.474 100.474 60.0781 102.448 60.0781ZM102.448 61.1979C105.036 61.1979 107.156 59.0885 107.156 56.5104C107.156 53.9375 105.036 51.8281 102.448 51.8281C99.854 51.8281 97.7498 53.9375 97.7498 56.5104C97.7498 59.0885 99.854 61.1979 102.448 61.1979ZM94.2967 68.4844C96.2707 68.4844 97.8696 66.8958 97.8696 64.9219C97.8696 62.9635 96.2707 61.375 94.2967 61.375C92.328 61.375 90.7134 62.9635 90.7134 64.9219C90.7134 66.8958 92.328 68.4844 94.2967 68.4844ZM94.2967 69.6042C96.8905 69.6042 98.9946 67.5 98.9946 64.9219C98.9946 62.3594 96.8905 60.2552 94.2967 60.2552C91.7082 60.2552 89.5884 62.3594 89.5884 64.9219C89.5884 67.5 91.7082 69.6042 94.2967 69.6042ZM56.6769 70.974C58.6509 70.974 60.2498 69.3854 60.2498 67.4271C60.2498 65.4688 58.6509 63.8594 56.6769 63.8594C54.7082 63.8594 53.0936 65.4688 53.0936 67.4271C53.0936 69.3854 54.7082 70.974 56.6769 70.974ZM56.6769 72.0938C59.2707 72.0938 61.3748 70.0052 61.3748 67.4271C61.3748 64.849 59.2707 62.7448 56.6769 62.7448C54.0884 62.7448 51.9686 64.849 51.9686 67.4271C51.9686 70.0052 54.0884 72.0938 56.6769 72.0938ZM40.3696 64.7448C42.3436 64.7448 43.9582 63.1563 43.9582 61.1823C43.9582 59.224 42.3436 57.6302 40.3696 57.6302C38.4009 57.6302 36.7863 59.224 36.7863 61.1823C36.7863 63.1563 38.4009 64.7448 40.3696 64.7448ZM40.3696 65.8646C42.9634 65.8646 45.0832 63.7604 45.0832 61.1823C45.0832 58.6198 42.9634 56.5104 40.3696 56.5104C37.7811 56.5104 35.6769 58.6198 35.6769 61.1823C35.6769 63.7604 37.7811 65.8646 40.3696 65.8646ZM25.9478 60.3854C27.9321 60.3854 29.5311 58.7813 29.5311 56.8229C29.5311 54.8646 27.9321 53.2604 25.9478 53.2604C23.9738 53.2604 22.3748 54.8646 22.3748 56.8229C22.3748 58.7813 23.9738 60.3854 25.9478 60.3854ZM25.9478 61.5052C28.5363 61.5052 30.6561 59.401 30.6561 56.8229C30.6561 54.2448 28.5363 52.1563 25.9478 52.1563C23.3696 52.1563 21.2498 54.2448 21.2498 56.8229C21.2498 59.401 23.3696 61.5052 25.9478 61.5052ZM52.604 47.9115C54.578 47.9115 56.1769 46.3229 56.1769 44.349C56.1769 42.3906 54.578 40.7969 52.604 40.7969C50.6196 40.7969 49.0207 42.3906 49.0207 44.349C49.0207 46.3229 50.6196 47.9115 52.604 47.9115ZM52.604 49.0313C55.1978 49.0313 57.3019 46.9271 57.3019 44.349C57.3019 41.7865 55.1978 39.6771 52.604 39.6771C50.0155 39.6771 47.8957 41.7865 47.8957 44.349C47.8957 46.9271 50.0155 49.0313 52.604 49.0313ZM79.5623 54.776C81.5311 54.776 83.1457 53.1719 83.1457 51.2135C83.1457 49.25 81.5311 47.6458 79.5623 47.6458C77.5936 47.6458 75.979 49.25 75.979 51.2135C75.979 53.1719 77.5936 54.776 79.5623 54.776ZM79.5623 55.8906C82.1561 55.8906 84.2707 53.7865 84.2707 51.2135C84.2707 48.6302 82.1561 46.5417 79.5623 46.5417C76.9686 46.5417 74.854 48.6302 74.854 51.2135C74.854 53.7865 76.9686 55.8906 79.5623 55.8906ZM102.755 37.1719C105.505 37.1719 107.76 34.9323 107.76 32.1979C107.76 29.4635 105.505 27.224 102.755 27.224C100.005 27.224 97.7707 29.4635 97.7707 32.1979C97.7707 34.9323 100.005 37.1719 102.755 37.1719ZM125.302 59.4688C125.146 57.8333 124.193 55.2813 123.656 54.0313C123.417 53.4531 123.422 53.1927 123.484 52.7708C123.505 52.6615 123.526 52.5156 123.536 52.3021C123.547 52.1823 123.547 52.0729 123.552 51.9531L94.7498 65.2813L92.7915 74.3958C93.1561 74.6042 93.5363 74.974 93.9842 75.4063C94.3175 75.7344 94.6613 76.0677 94.9269 76.2552C97.0103 77.7708 97.7134 78.276 100.042 79.2031C100.187 79.2552 100.302 79.3229 100.385 79.375C100.463 79.4219 100.51 79.4479 100.614 79.4792L102.739 80.0938C105.146 80.6458 107.776 80.6823 110.109 80.1823L110.208 80.1615C111.094 79.9844 111.792 79.8438 112.604 79.5469C112.781 79.4792 112.974 79.4115 113.167 79.349C113.359 79.2813 113.552 79.2188 113.739 79.1406L113.854 79.099C114.036 79.0313 114.12 79.0052 114.292 78.9219C115.39 78.4583 116.505 77.8333 117.448 77.1615L117.661 77.0104C119.693 75.5313 122.265 73.0104 123.406 70.3594C123.515 70.0938 123.656 69.8229 123.792 69.5521C123.974 69.1875 124.151 68.8438 124.271 68.4844C124.719 67.1302 125.021 65.8854 125.203 64.6927C125.458 62.9479 125.489 61.4323 125.302 59.4688ZM93.6925 65.2865L61.979 56.5104L57.4061 67.0521L91.7238 74.3542C91.729 74.349 91.7342 74.349 91.7394 74.3438L93.6925 65.2865ZM91.1509 75.2865L57.1092 68.0469L55.3696 79.8021C55.8123 80.1042 56.2394 80.6719 56.755 81.4063C56.8696 81.5677 56.9738 81.7135 57.0571 81.8177C58.0259 83.0521 59.5155 84.3906 60.9425 85.3021L63.4478 86.7448C64.9217 87.599 66.9582 88.224 69.5103 88.599C73.1561 89.151 77.2394 88.4948 81.0155 86.7552C82.6196 86.026 84.3123 84.8854 85.7863 83.5417C86.729 82.6875 87.4738 81.8542 88.2134 80.8281C89.0623 79.6823 89.6873 78.7396 90.2342 77.5469C90.3071 77.3854 90.3644 77.2813 90.4165 77.1875C90.453 77.125 90.4894 77.0677 90.5259 76.9688C90.5467 76.9167 90.5884 76.8021 90.6457 76.6406C90.8644 76.0365 91.0259 75.6042 91.1509 75.2865ZM56.104 67.7552L39.8748 61.5417L39.2759 51.9583L26.453 57.1719L25.5519 89.5469L30.6717 81.8958L54.1613 79.849C54.2134 79.8021 54.2707 79.7604 54.3332 79.7188L56.104 67.7552ZM53.354 80.9531L31.2603 82.8802L25.7759 91.0729C29.7915 95.0677 33.8175 96.4115 37.4373 94.9635C40.8019 93.6146 43.0467 90 43.0519 88.2031V87.9635L43.1978 87.7708C43.6613 87.1458 43.8748 86.776 44.005 86.5521C44.3384 85.9844 44.5363 85.8542 45.1925 85.7656C45.4269 85.7344 45.7811 85.6823 46.38 85.5469C48.0207 85.1563 49.5415 84.4583 50.7603 83.526C50.8644 83.4479 50.9582 83.3802 51.0467 83.3177C51.1561 83.2396 51.255 83.1667 51.3592 83.0729C52.2082 82.3021 52.828 81.6354 53.354 80.9531ZM25.4113 57.3542L6.81755 57.9531C6.6613 58.1875 6.4738 58.3802 6.26546 58.5938C5.74463 59.125 4.95817 59.9271 3.86963 62.2969C3.10921 63.974 2.76025 66.7552 3.08317 68.625C3.24984 69.5781 3.46338 70.2656 3.73421 71.1406L3.81234 71.3906C3.99984 71.9844 4.58317 73.0156 5.00505 73.5938L7.23421 76.1146C7.48942 76.3438 7.71859 76.5052 7.9165 76.6458C8.37484 76.9688 8.89567 77.3385 8.89567 78.2083C8.8488 80.8073 9.46338 83.2135 10.6144 84.9948L12.2082 87.1198C13.0623 88.0469 14.7342 89.3542 15.9946 89.8646C18.0571 90.6927 21.1665 91.3594 23.1196 90.849L23.3644 90.7813C23.703 90.6823 24.0728 90.5833 24.4842 90.5625L25.4113 57.3542ZM5.68213 55.776C5.73421 55.8125 5.82275 55.8542 5.9113 55.901C6.14046 56.0156 6.41651 56.1615 6.64567 56.3646L29.3019 34.349L7.38525 39.224L7.33317 39.2917C7.18734 39.4792 7.0363 39.5781 6.92692 39.651C6.90088 39.6667 6.86442 39.6875 6.82796 39.7188L6.75505 39.7656C6.6665 39.8125 6.5988 39.8438 6.54671 39.875C6.44775 39.9219 6.43734 39.9271 6.32796 40.0156C6.10921 40.1927 5.92171 40.3698 5.77067 40.5417L5.69775 40.625L5.604 40.6875C3.03109 42.2969 1.48942 45.0677 1.48942 48.0885C1.48942 50.6771 2.62484 53.1146 4.604 54.7708L4.69775 54.8646C4.98942 55.2188 5.32796 55.5313 5.68213 55.776ZM7.45817 38.1563L30.4478 33.0365L30.4217 11.7135C29.6509 11.6562 28.8905 11.9115 28.3019 12.4271L28.0415 12.6042L27.88 12.6302C24.7707 13.1094 22.1405 15.25 21.0103 18.2188L20.9425 18.3906L20.8071 18.5104C19.9373 19.2656 19.203 20.224 18.6196 21.3542C18.5623 21.4688 18.5155 21.5625 18.479 21.6615L18.38 21.9271L18.1248 22.0573C15.9165 23.1979 13.8175 24.9063 12.0415 27C9.06234 30.5208 7.38005 34.6406 7.45817 38.1563ZM7.57796 56.8958L25.8332 56.3073L39.5259 50.7448L51.4842 44.3594L31.0623 34.0781L7.57796 56.8958ZM50.8644 45.8594L40.2863 51.5104L40.8019 59.7135L50.8644 45.8594ZM41.1873 60.9427L56.4009 66.7656L61.0884 55.9688L52.6196 45.2031L41.1873 60.9427ZM51.3957 25.8542C51.1561 26.1042 50.9478 26.3802 50.7655 26.6771L31.4582 12.0729L31.4842 32.8281L50.104 29.4115C50.13 29.7604 50.1925 30.1042 50.2915 30.4271L32.5675 33.6771L52.1925 43.5625L53.6248 33.6042C53.953 33.6875 54.2967 33.7396 54.6509 33.75L53.1509 44.2031L61.88 55.3073L78.4998 50.9583L57.9217 32.5625C58.1769 32.3281 58.4113 32.0729 58.6144 31.7917L79.3123 50.2917L84.5675 33.6667C84.88 33.8021 85.2082 33.9115 85.5571 33.9792L80.5832 49.7083L98.828 34.75C99.0155 35.0417 99.2394 35.3073 99.4842 35.5469L80.703 50.9479L102.099 55.9063L111.557 26.9219L106.922 30.026C106.76 29.7188 106.568 29.4375 106.344 29.1719L111.771 25.5365C111.656 21.5417 108.161 16.9583 103.015 14.0938C99.604 12.1875 95.8957 11.276 92.6978 11.5156L101.088 27.8229C100.76 27.9479 100.453 28.1042 100.167 28.2969L91.9165 12.2708L88.2446 25.0677C87.9269 24.9375 87.5936 24.8438 87.2446 24.7865L91.1353 11.2448L91.0988 11.1615C90.4478 9.63021 89.3696 8.3125 87.979 7.35417C85.4738 5.63542 82.2342 5.34375 79.4425 6.54687L85.4946 24.8177C85.1509 24.8906 84.8228 25 84.5103 25.1458L78.4998 7L58.5103 26.224C58.2967 25.9479 58.0571 25.6979 57.7915 25.4792L77.8644 6.17187C77.38 5.61458 76.8332 5.125 76.229 4.72396C73.4478 2.80208 69.8748 2.63021 66.9009 4.27083L66.6769 4.39583L66.1248 4.30208L65.9634 4.16146C65.7603 3.98437 65.5467 3.81771 65.2498 3.60417C62.2134 1.53125 58.1353 1.5625 55.1248 3.69792L54.979 3.80208L54.8019 3.82292C54.4634 3.875 54.1821 3.92708 53.9009 4C53.5623 4.08854 53.3332 4.15104 53.1613 4.19792L54.9165 24.4115C54.8748 24.4115 54.8384 24.4063 54.7967 24.4063C54.4842 24.4063 54.1769 24.4375 53.88 24.4948L52.1248 4.23437C49.1405 3.38542 45.5623 3.43229 41.9998 4.39583C37.5311 5.60417 33.7603 8.07812 31.8071 11.0469L51.3957 25.8542ZM101.437 56.8073L79.9113 51.8229L79.8123 52.1302L79.4217 51.7813L63.6665 55.9063L94.1405 64.3438L101.437 56.8073ZM96.604 63.2865L119.099 52.875L102.713 56.974L96.604 63.2865ZM112.792 26.4844L103.229 55.7865L123.625 50.6823C125.14 46.8646 123.838 42.5885 120.437 40.2552C120.146 40.0417 119.838 39.8542 119.448 39.6563L119.323 39.5885L119.125 39.3594C119.088 39.3125 119.047 39.2604 119 39.2135L118.646 38.8594L118.844 38.4063C120.463 34.599 119.156 30.1302 115.724 27.7813C114.828 27.1563 113.838 26.7292 112.792 26.4844ZM126.667 64.9115C126.474 66.1875 126.151 67.5052 125.677 68.9479C125.515 69.4167 125.312 69.8229 125.114 70.2135C124.989 70.4531 124.87 70.6927 124.765 70.9375C123.698 73.4219 121.37 76.1354 118.536 78.1979L118.318 78.3594C117.281 79.0938 116.068 79.7708 114.896 80.2656C114.703 80.3594 114.599 80.3958 114.364 80.4844L114.271 80.5156C114.078 80.5938 113.864 80.6667 113.646 80.7396C113.474 80.7969 113.297 80.8594 113.125 80.9271C112.198 81.2656 111.411 81.4219 110.5 81.6042L110.411 81.6198C107.88 82.1667 105.021 82.1302 102.364 81.5156L100.182 80.8854C99.8957 80.7969 99.7446 80.7083 99.63 80.6406C99.5936 80.6198 99.5571 80.5938 99.505 80.5729C96.9894 79.5781 96.13 78.9531 94.0571 77.4479C93.7082 77.1979 93.3228 76.8229 92.9478 76.4635C92.8071 76.3229 92.6248 76.151 92.4634 76C92.3019 76.4063 92.1196 76.9115 92.0415 77.1354C91.9738 77.3177 91.9269 77.4583 91.9061 77.5052C91.8384 77.6875 91.7759 77.7969 91.7082 77.9167C91.6717 77.9792 91.63 78.0469 91.5832 78.1563C90.9842 79.4635 90.3123 80.4792 89.4165 81.6875C88.6248 82.7865 87.7915 83.724 86.7863 84.6302C85.203 86.0677 83.3748 87.3021 81.6353 88.0938C77.604 89.9531 73.2186 90.6458 69.2915 90.0521C66.5571 89.651 64.3384 88.9635 62.703 88.0156L60.1717 86.5625C58.5832 85.5469 56.953 84.0833 55.8853 82.724C55.7967 82.6042 55.6769 82.4375 55.5415 82.25C55.3957 82.0417 55.1248 81.6615 54.8853 81.375L54.8228 81.4635C54.1873 82.3542 53.4269 83.1875 52.3644 84.1563C52.203 84.3021 52.0571 84.4063 51.9113 84.5104C51.8384 84.5625 51.7603 84.625 51.6665 84.6927C50.2759 85.7552 48.5675 86.5417 46.7186 86.9792C46.0519 87.1354 45.6405 87.1927 45.3957 87.224C45.3696 87.2292 45.3436 87.2292 45.3228 87.2344C45.3123 87.25 45.2967 87.2708 45.2863 87.2917C45.1561 87.5156 44.9425 87.8802 44.5207 88.4583C44.3436 90.8021 41.8853 94.7656 37.9894 96.3281C37.005 96.724 35.8332 97.0104 34.4998 97.0104C31.8696 97.0104 28.6092 95.8958 24.9373 92.3229L24.4113 93.1094L24.4425 92.0521C24.2394 92.0781 24.0259 92.125 23.7811 92.1979C23.6873 92.224 23.5936 92.25 23.4998 92.276C21.2082 92.8698 17.7967 92.1823 15.4321 91.2292C13.9478 90.625 12.0623 89.151 11.0884 88.0781L11.0415 88.026L9.40088 85.8333C8.05713 83.7708 7.36442 81.0729 7.4165 78.1927C7.4165 78.1406 7.40609 78.1198 7.40609 78.1198C7.38005 78.0729 7.19255 77.9427 7.05713 77.8438C6.82796 77.6823 6.54151 77.4792 6.20296 77.1719L6.15088 77.1146L3.82796 74.4896C3.32796 73.8125 2.64567 72.6042 2.40088 71.8281L2.32275 71.5781C2.04671 70.6875 1.80713 69.9219 1.61963 68.8802C1.24984 66.7188 1.64046 63.6302 2.52067 61.6875C3.71859 59.0833 4.61442 58.1719 5.20296 57.5677C5.29671 57.474 5.37484 57.3906 5.44255 57.3177C5.36963 57.2813 5.29671 57.2396 5.24463 57.2135C5.08838 57.1354 4.94255 57.0625 4.83838 56.9896C4.38005 56.6667 3.96859 56.2865 3.5988 55.8542C1.31755 53.9167 0.0102539 51.0885 0.0102539 48.0885C0.0102539 44.5938 1.77067 41.3906 4.7238 39.4948C4.91651 39.2865 5.14046 39.0781 5.39567 38.8698C5.60921 38.6979 5.71859 38.6406 5.87484 38.5625C5.90609 38.5469 5.94255 38.526 5.98421 38.5052C5.79671 34.5625 7.61442 29.9427 10.9061 26.0521C12.7446 23.8854 14.9165 22.099 17.2082 20.8698C17.2394 20.8177 17.2655 20.7552 17.3019 20.6927C17.9425 19.4427 18.7446 18.3802 19.6925 17.526C21.0207 14.2135 23.9686 11.8177 27.4582 11.2083C28.3332 10.5 29.4425 10.1562 30.5623 10.2448C32.7082 6.97917 36.7967 4.27604 41.6144 2.97396C45.453 1.9375 49.3384 1.89062 52.5936 2.82812C52.7759 2.77604 53.0571 2.69271 53.5311 2.57292C53.8071 2.50521 54.0936 2.44271 54.4113 2.39583C57.9165 0.00520879 62.5884 -1.76874e-07 66.104 2.40104C66.2498 2.50521 66.4165 2.63021 66.5936 2.76562C69.9738 1.08854 73.9478 1.35417 77.0675 3.51042C77.7498 3.96354 78.3748 4.51562 78.9321 5.14583L78.9686 5.11458L78.9738 5.14062C82.2134 3.79688 85.9321 4.16146 88.8228 6.14062C90.2915 7.15625 91.4582 8.51042 92.229 10.0781C95.7967 9.71354 99.9582 10.6979 103.739 12.8073C109.042 15.7604 112.62 20.2917 113.177 24.599L113.474 24.3958L113.255 25.0677C114.437 25.3594 115.552 25.8646 116.568 26.5729C120.427 29.2135 121.984 34.1563 120.396 38.4896C120.739 38.6771 121.031 38.8594 121.297 39.0573C125.239 41.7604 126.765 46.724 125.026 51.1667C125.047 51.5729 125.047 51.974 125.015 52.3958C125 52.6615 124.974 52.849 124.948 52.9948C124.917 53.2083 124.917 53.2083 125.021 53.4635C125.729 55.1042 126.614 57.6302 126.776 59.3281C126.974 61.4167 126.943 63.0365 126.667 64.9115ZM90.9686 30.6875L98.078 31.9115C98.0988 31.5625 98.1561 31.224 98.2498 30.8958L91.1457 29.6719C91.1248 30.0208 91.0675 30.3594 90.9686 30.6875ZM59.4582 29.6354L81.7759 29.8542C81.7603 29.6979 81.755 29.5417 81.755 29.3854C81.755 29.1927 81.7707 29.0104 81.7915 28.8229L59.4686 28.6042C59.4842 28.7604 59.4946 28.9167 59.4946 29.0729C59.4946 29.2656 59.479 29.4531 59.4582 29.6354ZM86.4686 34.3177C89.1925 34.3177 91.4061 32.1146 91.4061 29.3802C91.4061 26.6719 89.1925 24.4688 86.4686 24.4688C83.7186 24.4688 81.505 26.6719 81.505 29.3802C81.505 32.1146 83.7186 34.3177 86.4686 34.3177ZM30.9686 37C32.9373 37 34.5519 35.4063 34.5519 33.4479C34.5519 31.4896 32.9373 29.8854 30.9686 29.8854C28.9946 29.8854 27.38 31.4896 27.38 33.4479C27.38 35.4063 28.9946 37 30.9686 37ZM30.9686 38.1198C33.5571 38.1198 35.6769 36.026 35.6769 33.4479C35.6769 30.875 33.5571 28.7656 30.9686 28.7656C28.3748 28.7656 26.2707 30.875 26.2707 33.4479C26.2707 36.026 28.3748 38.1198 30.9686 38.1198ZM54.8019 33.9375C52.1092 33.9375 49.9061 31.7448 49.9061 29.0729C49.9061 26.3958 52.1092 24.2292 54.8019 24.2292C57.4894 24.2292 59.6717 26.3958 59.6717 29.0729C59.6717 31.7448 57.4894 33.9375 54.8019 33.9375Z" fill="#5271FF"/>
</g>
</svg>
