<svg width="45" height="45" viewBox="0 0 45 45" fill="none" xmlns="http://www.w3.org/2000/svg">
<path d="M37.2273 16.8486H20.5499C18.503 16.8486 16.8438 18.5079 16.8438 20.5547V37.2322C16.8438 39.279 18.503 40.9383 20.5499 40.9383H37.2273C39.2741 40.9383 40.9334 39.279 40.9334 37.2322V20.5547C40.9334 18.5079 39.2741 16.8486 37.2273 16.8486Z" stroke="#3D4357" stroke-opacity="0.86" stroke-width="3.7061" stroke-linecap="round" stroke-linejoin="round"/>
<path d="M9.43122 27.9656H7.57817C6.59525 27.9656 5.65259 27.5752 4.95756 26.8801C4.26253 26.1851 3.87207 25.2425 3.87207 24.2595V7.58208C3.87207 6.59916 4.26253 5.6565 4.95756 4.96147C5.65259 4.26644 6.59525 3.87598 7.57817 3.87598H24.2556C25.2385 3.87598 26.1812 4.26644 26.8762 4.96147C27.5713 5.6565 27.9617 6.59916 27.9617 7.58208V9.43513" stroke="#3D4357" stroke-opacity="0.86" stroke-width="3.7061" stroke-linecap="round" stroke-linejoin="round"/>
</svg>
