<svg width="38" height="37" viewBox="0 0 38 37" fill="none" xmlns="http://www.w3.org/2000/svg">
<g clip-path="url(#clip0_120_214)">
<path d="M3.95256 8.45078L17.636 22.1343C18.4827 22.981 19.8226 23.0339 20.7308 22.293L20.9064 22.1343L34.5797 8.46096C34.624 8.62873 34.6545 8.80209 34.6699 8.97976L34.6815 9.24935V27.7493C34.6815 29.3749 33.4237 30.7065 31.8283 30.8242L31.5981 30.8327H6.93148C5.306 30.8327 3.97431 29.5749 3.8566 27.9795L3.84814 27.7493V9.24935C3.84814 9.06523 3.86428 8.88489 3.89522 8.70964L3.95256 8.45078ZM31.5981 6.16602C31.7848 6.16602 31.9675 6.18259 32.145 6.21435L32.4071 6.27321L19.2713 19.4089L6.13276 6.27048C6.30259 6.22505 6.47819 6.19377 6.65824 6.17796L6.93148 6.16602H31.5981Z" fill="#8693B5"/>
</g>
<defs>
<clipPath id="clip0_120_214">
<rect width="37" height="37" fill="white" transform="translate(0.764648)"/>
</clipPath>
</defs>
</svg>
