<svg width="147" height="141" viewBox="0 0 147 141" fill="none" xmlns="http://www.w3.org/2000/svg">
<mask id="mask0_425_33" style="mask-type:luminance" maskUnits="userSpaceOnUse" x="0" y="0" width="147" height="141">
<path d="M0 0H146.714V140.781H0V0Z" fill="white"/>
</mask>
<g mask="url(#mask0_425_33)">
<path d="M144.162 21.8226L139.599 21.807C139.344 21.5466 139.068 21.3018 138.766 21.0883L112.26 2.21847C111.912 1.96847 111.537 1.75493 111.146 1.57785C110.75 1.40597 110.344 1.26535 109.922 1.1716C109.505 1.07264 109.078 1.02056 108.646 1.00493C108.219 0.994516 107.787 1.02056 107.365 1.09347C106.938 1.16118 106.526 1.27056 106.12 1.4216C105.719 1.57785 105.333 1.76535 104.964 1.98931C104.599 2.21847 104.26 2.47889 103.943 2.77056C103.63 3.06222 103.344 3.38514 103.094 3.7341L95.073 14.906C94.7136 15.3903 94.4376 15.9164 94.2292 16.4789C94.0209 17.0466 93.9011 17.6299 93.8594 18.2289C93.8178 18.8278 93.8594 19.4216 93.9844 20.0101C94.1094 20.5935 94.3126 21.156 94.599 21.682L68.8021 21.6143C68.448 21.6143 68.1042 21.682 67.7709 21.8174C67.4376 21.9529 67.1459 22.1456 66.8959 22.4008C66.6407 22.6508 66.448 22.9424 66.3073 23.2706C66.1719 23.5987 66.1042 23.9424 66.1042 24.3018V26.2706H66.0678V28.7028L65.5261 28.7393C62.9115 28.9216 60.3073 29.0987 58.3021 29.1768C57.2448 29.2237 56.3386 29.2497 55.5938 29.2497C54.9688 29.2497 54.3386 29.2133 53.7136 29.1403C52.8334 29.0674 52.0521 28.7549 51.3751 28.1924C50.2917 27.156 49.349 26.0049 48.5573 24.7393L47.0313 22.5101C47.4376 21.9581 47.7448 21.3591 47.9636 20.7081C48.1771 20.0622 48.2865 19.3956 48.2865 18.7133C48.2917 18.031 48.1876 17.3643 47.9792 16.7133C47.7657 16.0622 47.4636 15.4581 47.0626 14.906L39.0469 3.7341C38.7969 3.38514 38.5105 3.06222 38.198 2.77056C37.8803 2.47368 37.5417 2.21326 37.1771 1.98931C36.8073 1.76014 36.4219 1.57264 36.0209 1.4216C35.6146 1.27056 35.2032 1.16118 34.7761 1.08827C34.349 1.02056 33.9219 0.989308 33.4896 1.00493C33.0573 1.01535 32.6355 1.07264 32.2136 1.1716C31.7917 1.26535 31.3855 1.40076 30.9948 1.57785C30.599 1.75493 30.2292 1.96847 29.8751 2.21847L3.36463 21.0831C3.01567 21.3331 2.69276 21.6143 2.40109 21.9268C2.10422 22.2393 1.8438 22.5778 1.61463 22.9424C1.38547 23.307 1.19797 23.6924 1.04692 24.0935C0.890675 24.4945 0.7813 24.906 0.708383 25.3278C0.640675 25.7549 0.609424 26.182 0.62505 26.6091C0.635466 27.0362 0.692758 27.4633 0.791716 27.8799C0.885466 28.2966 1.02609 28.7028 1.20317 29.0935C1.38026 29.4841 1.5938 29.8539 1.8438 30.2081L9.86463 41.3747C10.2709 41.9424 10.7553 42.4268 11.3125 42.8383C11.875 43.2497 12.4896 43.5622 13.1459 43.781C13.8073 43.9997 14.4896 44.1091 15.1823 44.1091C15.8803 44.1143 16.5625 44.0101 17.224 43.7966C19.7917 48.1716 22.4115 52.6091 25.0782 57.1039C28.1198 62.2289 31.4844 67.8539 35.1667 73.9841C34.7136 74.7081 34.3907 75.4945 34.1928 76.3279C34.0001 77.1612 33.948 78.0049 34.0365 78.8591C34.1198 79.7133 34.3438 80.531 34.7032 81.307C35.0626 82.0883 35.5365 82.7862 36.1303 83.4112C36.224 83.5258 36.3282 83.6299 36.4428 83.7237C37.9271 85.1143 39.6876 85.8226 41.724 85.8383C41.7344 86.8226 41.9219 87.7654 42.2917 88.6768C42.6615 89.5883 43.1823 90.3956 43.8646 91.1091L44.0105 91.2601C44.7344 91.9789 45.5678 92.5362 46.5053 92.9268C47.448 93.3174 48.4271 93.5154 49.448 93.5258C49.4584 94.531 49.6511 95.4997 50.0417 96.432C50.4271 97.3591 50.974 98.1872 51.6823 98.9008L51.8907 99.0987C52.6094 99.7706 53.4219 100.286 54.3334 100.651C55.2448 101.015 56.1928 101.203 57.1719 101.208C57.1771 102.213 57.3751 103.187 57.7605 104.114C58.1459 105.047 58.6928 105.875 59.4063 106.593L59.6146 106.791C60.3386 107.474 61.1615 107.995 62.0886 108.364C63.0105 108.729 63.974 108.911 64.9688 108.911C65.3334 108.906 65.6928 108.875 66.0521 108.817V110.427H34.0886C33.7448 110.427 33.4167 110.489 33.1042 110.62C32.7917 110.75 32.5157 110.932 32.2709 111.172C32.0313 111.411 31.849 111.687 31.7188 112C31.5886 112.312 31.5209 112.64 31.5209 112.979V125.489C31.5261 126.474 31.6251 127.453 31.823 128.416C32.0157 129.385 32.3021 130.323 32.6876 131.234C33.0678 132.146 33.5313 133.01 34.0834 133.828C34.6355 134.651 35.2605 135.406 35.9636 136.104C36.6615 136.802 37.4271 137.427 38.2501 137.974C39.073 138.521 39.9428 138.989 40.8542 139.364C41.7709 139.745 42.7136 140.031 43.6876 140.229C44.6563 140.422 45.6407 140.521 46.6303 140.526H131.62C132.609 140.521 133.594 140.422 134.563 140.229C135.537 140.031 136.479 139.745 137.396 139.364C138.307 138.989 139.177 138.521 140 137.974C140.823 137.427 141.589 136.802 142.287 136.104C142.99 135.406 143.615 134.651 144.167 133.828C144.719 133.01 145.182 132.146 145.563 131.234C145.948 130.323 146.234 129.385 146.432 128.416C146.625 127.453 146.724 126.474 146.729 125.489V24.3747C146.729 24.0362 146.662 23.7081 146.531 23.3956C146.401 23.0831 146.219 22.807 145.979 22.5674C145.734 22.3331 145.458 22.1456 145.146 22.0153C144.833 21.8851 144.505 21.8226 144.162 21.8226ZM98.7553 17.5258L106.781 6.35389C106.938 6.13514 107.13 5.95806 107.359 5.81743C107.589 5.6716 107.839 5.57785 108.104 5.53618C108.37 5.48931 108.635 5.49972 108.901 5.56222C109.162 5.61952 109.406 5.72889 109.625 5.88514L136.13 24.7497C136.354 24.906 136.531 25.0987 136.677 25.3278C136.818 25.557 136.912 25.8018 136.958 26.0674C137 26.3331 136.995 26.5987 136.932 26.8591C136.87 27.1247 136.76 27.3643 136.604 27.5831L128.589 38.7549C128.432 38.9737 128.24 39.1508 128.01 39.2966C127.781 39.4372 127.531 39.531 127.266 39.5726C127 39.6195 126.734 39.6091 126.469 39.5518C126.208 39.4893 125.964 39.3799 125.745 39.2237L99.224 20.3591C99.0053 20.2029 98.8282 20.0101 98.6823 19.781C98.5417 19.5518 98.448 19.3018 98.4063 19.0414C98.3594 18.7758 98.3698 18.5101 98.4323 18.2497C98.4896 17.9893 98.599 17.7445 98.7553 17.5258ZM71.2188 26.7497L94.5782 26.8174C93.8126 27.7758 92.8438 28.4372 91.6667 28.8018C90.823 29.0049 89.974 29.1247 89.1146 29.1716C88.0886 29.2237 87.0678 29.2289 86.0469 29.182C84.4636 29.1143 82.7292 28.9424 80.948 28.7601C77.7188 28.3695 74.474 28.2028 71.2188 28.2653V26.7497ZM80.5001 33.4008C82.349 33.5831 84.1459 33.7601 85.8542 33.8383C87.0313 33.8956 88.2136 33.8903 89.3959 33.8278C90.5469 33.7653 91.6876 33.5987 92.8073 33.3278C96.4532 32.406 98.5678 29.656 100.339 26.8331H100.531L120.162 40.8018C117.495 45.3487 114.677 50.1143 111.693 55.1404C108.479 60.5466 105.318 65.8435 102.198 71.0362L70.9896 39.9685L70.974 39.9528C70.7709 39.7497 70.5365 39.5883 70.2709 39.4737C70.0053 39.3539 69.724 39.2914 69.4376 39.2758C69.1459 39.2601 68.8646 39.2966 68.5886 39.3851C68.3126 39.4737 68.0626 39.6091 67.8334 39.7914C67.7709 39.8435 67.7136 39.8956 67.6511 39.9528L59.1355 48.432C58.8386 48.6976 58.5053 48.9008 58.1355 49.0362C57.7657 49.1768 57.3803 49.2445 56.9844 49.2393C56.5886 49.2289 56.2032 49.156 55.8386 49.0049C55.4688 48.8539 55.1407 48.6404 54.8542 48.3695L54.7969 48.307C54.5105 48.0154 54.2917 47.682 54.1407 47.3018C53.9896 46.9216 53.9115 46.531 53.9115 46.1247C53.9167 45.7133 53.9948 45.3226 54.1511 44.9476C54.3073 44.5726 54.5313 44.2393 54.8178 43.9476L63.2084 35.5935C67.2709 32.0935 74.2292 32.781 80.5001 33.4008ZM16.4011 39.2237C16.1771 39.3799 15.9376 39.4893 15.6719 39.5518C15.4115 39.6091 15.1459 39.6195 14.8803 39.5726C14.6094 39.531 14.3646 39.4372 14.1355 39.2966C13.9063 39.1508 13.7136 38.9737 13.5521 38.7549L5.5313 27.5831C5.36984 27.3643 5.26567 27.1247 5.20317 26.8591C5.14067 26.5987 5.13547 26.3331 5.17713 26.0674C5.22401 25.8018 5.31776 25.557 5.45838 25.3278C5.59901 25.0987 5.7813 24.906 6.00005 24.7497L32.5105 5.88514C32.7292 5.72889 32.974 5.61952 33.2344 5.56222C33.5001 5.49972 33.7657 5.48931 34.0313 5.53618C34.2969 5.57785 34.5469 5.6716 34.7761 5.81743C35.0053 5.95806 35.198 6.13514 35.3542 6.35389L43.3803 17.5258C43.5365 17.7445 43.6407 17.9893 43.7032 18.2497C43.7657 18.5101 43.7709 18.7758 43.7292 19.0414C43.6823 19.307 43.5886 19.5518 43.448 19.781C43.3073 20.0101 43.1251 20.2029 42.9063 20.3591L16.4011 39.2237ZM29.1042 54.7341C26.323 50.0622 23.6875 45.5987 21.2032 41.3539L43.4271 25.5362L44.6928 27.3903C45.7188 29.0153 46.9376 30.4789 48.3542 31.781C49.724 32.932 51.3021 33.5935 53.0834 33.7653H53.099C53.9115 33.8643 54.7344 33.9112 55.5573 33.906C56.4115 33.906 57.323 33.8851 58.3334 33.8435L51.4844 40.6456C51.1251 41.0101 50.8021 41.4008 50.5209 41.8226C50.2396 42.2445 50.0001 42.6872 49.8021 43.156C49.6042 43.6247 49.4584 44.1091 49.3594 44.6039C49.2553 45.1039 49.2032 45.6039 49.2032 46.1143C49.2032 46.6195 49.2501 47.1247 49.3438 47.6195C49.4428 48.1195 49.5886 48.6039 49.7813 49.0726C49.9688 49.5466 50.2084 49.9893 50.4844 50.4164C50.7657 50.8383 51.0834 51.2341 51.4428 51.5935L51.4896 51.6456C51.8438 51.9997 52.2344 52.3174 52.6511 52.5987C53.0678 52.8747 53.5105 53.1143 53.974 53.307C54.4376 53.4997 54.9167 53.6508 55.4115 53.7549C55.9011 53.8539 56.4011 53.9112 56.9011 53.9164C57.4063 53.9216 57.9063 53.8799 58.4011 53.7914C58.8959 53.7029 59.3803 53.5674 59.849 53.3799C60.3178 53.1976 60.7657 52.9737 61.1876 52.7029C61.6146 52.4372 62.0105 52.1299 62.3751 51.7862L62.5313 51.6404L69.3178 44.906L100.766 76.2133C101.214 76.656 101.5 77.1872 101.625 77.8018C101.745 78.4164 101.688 79.0154 101.448 79.5935C101.203 80.1768 100.823 80.6404 100.297 80.9841C99.7709 81.3331 99.1928 81.5049 98.5626 81.5049V81.5154C97.7084 81.5154 96.974 81.2185 96.3646 80.6143L81.7501 66.0622C81.5365 65.8174 81.2813 65.6299 80.9844 65.4893C80.6928 65.3539 80.3803 65.2758 80.0573 65.2654C79.7292 65.2549 79.4167 65.3122 79.1146 65.432C78.8073 65.5518 78.5417 65.7237 78.3126 65.9581C78.0834 66.1872 77.9063 66.4529 77.7865 66.7549C77.6719 67.057 77.6146 67.3695 77.6251 67.6924C77.6355 68.0154 77.7136 68.3226 77.8542 68.6195C77.9948 68.9112 78.1876 69.1664 78.4323 69.3799L92.9896 83.8643C93.0105 83.8799 93.0261 83.9008 93.0417 83.9164L93.099 83.9685L93.1355 84.0101C93.4011 84.3018 93.6042 84.6351 93.7448 85.0049C93.8855 85.3695 93.948 85.7549 93.9428 86.1508C93.9376 86.5414 93.8594 86.9216 93.7084 87.2914C93.5626 87.656 93.349 87.9789 93.073 88.2654L93.0157 88.3226C92.724 88.6091 92.3855 88.8279 92.0053 88.9789C91.6251 89.1299 91.2292 89.2081 90.823 89.2029C90.4115 89.2029 90.0157 89.1247 89.6407 88.9685C89.2605 88.8122 88.9271 88.5935 88.6355 88.307L74.0313 73.7549C73.8021 73.5674 73.5521 73.4268 73.2709 73.3279C72.9948 73.2341 72.7084 73.1924 72.4115 73.2081C72.1198 73.2185 71.8386 73.2862 71.5678 73.406C71.2969 73.5206 71.0573 73.682 70.849 73.8904C70.6407 74.0987 70.4792 74.3383 70.3594 74.6039C70.2396 74.8747 70.1719 75.156 70.1615 75.4476C70.1459 75.7393 70.1876 76.0258 70.2813 76.3018C70.3803 76.5831 70.5209 76.8331 70.7084 77.057L85.323 91.6039C85.6094 91.8956 85.8334 92.2289 85.9896 92.6091C86.1459 92.9893 86.224 93.3851 86.224 93.7914C86.224 94.2029 86.1459 94.5987 85.9896 94.9789C85.8334 95.3591 85.6094 95.6924 85.323 95.9841L85.2969 96.0101C85.0053 96.2914 84.6719 96.5049 84.2969 96.656C83.9219 96.8122 83.5313 96.8851 83.1303 96.8904C82.724 96.8904 82.3334 96.8174 81.9532 96.6716C81.5782 96.5206 81.2448 96.307 80.948 96.031L80.9063 95.9841C80.7917 95.8695 80.6563 95.7654 80.5157 95.6716C80.7709 94.9945 80.9271 94.2914 80.9844 93.5674C81.0417 92.8383 81.0001 92.1247 80.8542 91.4112C80.7084 90.6976 80.4688 90.0206 80.1303 89.3747C79.7917 88.7289 79.3698 88.1456 78.8698 87.6143L78.724 87.4633C78.0053 86.7445 77.1719 86.1872 76.224 85.7966C75.2813 85.4008 74.3021 85.2029 73.2761 85.1976C73.2709 84.1872 73.073 83.2185 72.6876 82.2914C72.3021 81.3591 71.7553 80.5362 71.0469 79.8174L71.0001 79.7706C70.0938 78.8695 69.0313 78.2341 67.8126 77.8591C68.1407 77.156 68.3594 76.4216 68.4636 75.6508C68.5678 74.8799 68.5573 74.1143 68.4323 73.3487C68.3073 72.5831 68.073 71.8539 67.724 71.156C67.3803 70.4633 66.9376 69.8331 66.4011 69.2706L66.2553 69.1091C65.7032 68.5674 65.0886 68.1143 64.4011 67.7497C63.7188 67.3904 62.9948 67.1351 62.2344 66.9841C61.474 66.8383 60.7084 66.8018 59.9376 66.8799C59.1667 66.9581 58.4219 67.1456 57.7084 67.4476C57.6094 67.1247 57.4896 66.8122 57.3542 66.5049C57.2188 66.2029 57.0626 65.906 56.8855 65.6195C56.7084 65.3331 56.5157 65.0622 56.3021 64.8018C56.0938 64.5414 55.8646 64.2966 55.6251 64.0622C55.3803 63.8331 55.1251 63.6195 54.8542 63.4216C54.5834 63.2237 54.2969 63.0414 54.0053 62.8799C53.7084 62.7185 53.4063 62.5726 53.0938 62.4529C52.7813 62.3279 52.4636 62.2289 52.1355 62.1456C51.8126 62.0622 51.4792 61.9997 51.1459 61.9633C50.8126 61.9216 50.4792 61.906 50.1407 61.9112C49.8073 61.9112 49.4688 61.9372 49.1355 61.9841C48.8021 62.031 48.474 62.0987 48.1511 62.1872C47.8282 62.2758 47.5105 62.3851 47.198 62.5154C46.8907 62.6456 46.5886 62.7914 46.2969 62.9633C46.0105 63.1299 45.7292 63.3174 45.4636 63.5206C45.198 63.7237 44.9428 63.9424 44.7084 64.182L38.4636 70.3956C35.3803 65.2654 32.2605 60.0466 29.1042 54.7341ZM99.0938 86.1247C99.0834 86.1508 99.073 86.1768 99.0573 86.1976C98.9271 86.4424 98.7605 86.656 98.5678 86.8487C98.5886 86.6247 98.6355 86.4008 98.6407 86.1716C98.7917 86.1716 98.9428 86.1351 99.0938 86.1247ZM78.5001 101.495C78.5001 102.349 78.198 103.083 77.5938 103.687L77.4948 103.781C77.2136 104.036 76.8907 104.234 76.5365 104.37C76.1823 104.51 75.8126 104.583 75.4271 104.588C75.0469 104.588 74.6771 104.526 74.3178 104.396C73.9584 104.265 73.6303 104.078 73.3438 103.828L77.7292 99.4633C78.2396 100.041 78.4948 100.718 78.5001 101.495ZM44.0105 80.2706C43.9948 80.281 43.9844 80.2966 43.974 80.3122L43.9219 80.3643C43.323 80.906 42.6146 81.1716 41.8073 81.1716C40.9428 81.1768 40.2136 80.8747 39.6042 80.2654L39.5053 80.1768C39.2448 79.8904 39.0469 79.5622 38.9063 79.2029C38.7657 78.8435 38.698 78.4685 38.698 78.0831C38.698 77.6976 38.7657 77.3226 38.9063 76.9633C39.0469 76.5987 39.2448 76.2758 39.5053 75.9893C39.6459 75.8747 39.7657 75.7497 39.8751 75.6039L48.0365 67.4893C48.3282 67.2081 48.6667 66.9893 49.0417 66.8435C49.4219 66.6924 49.8178 66.6195 50.224 66.6247C50.6303 66.6299 51.0209 66.7081 51.3959 66.8695C51.7761 67.0258 52.1042 67.2445 52.3959 67.531C52.6823 67.8226 52.9063 68.1508 53.0626 68.5258C53.2188 68.9008 53.3021 69.2862 53.3073 69.6924C53.3126 70.0987 53.2396 70.4893 53.0886 70.8695C52.9376 71.2445 52.7188 71.5779 52.4376 71.8747L50.7553 73.5466L44.0105 80.2706ZM51.7344 87.9633C51.4428 88.2497 51.1042 88.4737 50.724 88.6247C50.3438 88.781 49.9428 88.8591 49.5313 88.8591C49.1198 88.8591 48.724 88.781 48.3438 88.6247C47.9636 88.4737 47.6251 88.2497 47.3282 87.9633L47.2344 87.8747C46.9636 87.5779 46.7605 87.2393 46.6198 86.8695C46.4792 86.4945 46.4167 86.1039 46.4271 85.7081C46.4323 85.307 46.5157 84.9216 46.6771 84.557C46.8334 84.1872 47.0521 83.8591 47.3334 83.5779L58.5365 72.4268C58.8282 72.1404 59.1615 71.9164 59.5365 71.7601C59.9167 71.6039 60.3073 71.5258 60.7136 71.5258C61.1251 71.5206 61.5157 71.5935 61.8959 71.7445C62.2761 71.8904 62.6094 72.1091 62.9063 72.3904L63.0417 72.5154C63.5782 73.1091 63.8438 73.807 63.8438 74.6091C63.849 75.4685 63.5469 76.1976 62.9376 76.8018L59.9532 79.7758L51.7344 87.9633ZM59.4688 95.6508L59.3803 95.7393C58.7813 96.2862 58.0782 96.5518 57.2657 96.5466V96.557C56.4011 96.5622 55.6667 96.2601 55.0626 95.6456L55.0417 95.6247C54.448 95.0206 54.1563 94.2966 54.1563 93.4529C54.1511 92.5935 54.4532 91.8695 55.0626 91.2654L55.2448 91.0883L63.2813 83.0883C63.5678 82.8018 63.9011 82.5779 64.2813 82.4268C64.6563 82.2706 65.0469 82.1872 65.4584 82.1872C65.8646 82.182 66.2553 82.2549 66.6355 82.406C67.0157 82.5518 67.3542 82.7706 67.6459 83.0518L67.7084 83.1091C68.2969 83.7133 68.5938 84.432 68.5886 85.2758H68.6042C68.6042 86.1299 68.3021 86.8591 67.698 87.4685L67.1928 87.9633L59.4688 95.6508ZM64.9844 104.245C64.1251 104.25 63.3907 103.948 62.7813 103.343L62.7605 103.323C62.474 103.031 62.2553 102.692 62.099 102.317C61.948 101.937 61.8751 101.541 61.8751 101.135C61.8751 100.729 61.9584 100.333 62.1146 99.9581C62.2709 99.5831 62.4948 99.2497 62.7865 98.9581L71.0053 90.781C71.2969 90.4893 71.6355 90.2654 72.0157 90.1091C72.3959 89.9529 72.7917 89.8747 73.2084 89.8747C73.6198 89.8747 74.0157 89.9529 74.3959 90.1091C74.7813 90.2654 75.1146 90.4893 75.4115 90.781L75.5053 90.8643C75.7709 91.1612 75.9792 91.4997 76.1198 91.8695C76.2553 92.2445 76.323 92.6351 76.3126 93.031C76.3073 93.432 76.224 93.8174 76.0678 94.182C75.9115 94.5518 75.6928 94.8799 75.4115 95.1612L67.099 103.437C66.4948 103.979 65.7917 104.245 64.9792 104.239L64.9844 104.245ZM46.6303 135.396C45.974 135.396 45.3282 135.328 44.6876 135.198C44.0469 135.073 43.4271 134.88 42.823 134.635C42.224 134.385 41.6511 134.078 41.1042 133.713C40.5626 133.354 40.0626 132.942 39.599 132.484C39.1355 132.026 38.724 131.526 38.3594 130.984C37.9948 130.442 37.6876 129.875 37.4376 129.276C37.1876 128.677 36.9948 128.057 36.8698 127.416C36.7396 126.781 36.6719 126.14 36.6667 125.489V115.552H107.031V125.489C107.031 127.312 107.354 129.083 108 130.791C108.651 132.5 109.583 134.041 110.797 135.411L46.6303 135.396ZM141.583 125.489C141.583 126.14 141.516 126.786 141.391 127.422C141.26 128.062 141.073 128.682 140.823 129.286C140.573 129.885 140.266 130.458 139.901 131C139.537 131.541 139.125 132.041 138.662 132.505C138.198 132.963 137.693 133.375 137.151 133.739C136.604 134.099 136.031 134.406 135.427 134.656C134.823 134.906 134.198 135.093 133.557 135.218C132.917 135.349 132.266 135.411 131.609 135.411H122.13C121.479 135.411 120.828 135.349 120.188 135.218C119.547 135.093 118.922 134.906 118.318 134.656C117.714 134.406 117.135 134.099 116.594 133.739C116.047 133.375 115.547 132.963 115.083 132.505C114.62 132.041 114.208 131.541 113.844 131C113.479 130.458 113.172 129.885 112.922 129.286C112.672 128.682 112.484 128.062 112.354 127.422C112.229 126.786 112.162 126.14 112.162 125.489V113.005C112.162 112.661 112.099 112.333 111.969 112.021C111.833 111.703 111.651 111.427 111.406 111.182C111.162 110.942 110.885 110.755 110.568 110.625C110.25 110.495 109.922 110.432 109.578 110.432H71.2188V108.052C71.948 108.515 72.7396 108.843 73.5834 109.041C74.4271 109.245 75.2761 109.302 76.1407 109.213C77.0053 109.13 77.8282 108.911 78.6198 108.552C79.4063 108.192 80.1146 107.718 80.7448 107.125L80.9011 106.968C82.0157 105.864 82.724 104.536 83.0313 103H130.417C130.729 102.989 131.031 102.927 131.323 102.797C131.609 102.672 131.865 102.5 132.083 102.271C132.302 102.047 132.469 101.791 132.589 101.5C132.708 101.208 132.766 100.906 132.766 100.593C132.766 100.281 132.708 99.9789 132.589 99.6872C132.469 99.4008 132.302 99.1404 132.083 98.9164C131.865 98.6924 131.609 98.5154 131.323 98.3904C131.031 98.2654 130.729 98.1976 130.417 98.1872H89.5209C90.4271 96.8851 90.8907 95.4424 90.9063 93.8591C91.9219 93.8487 92.8907 93.656 93.8282 93.2706C94.7605 92.8851 95.5886 92.3435 96.3126 91.6351L96.3594 91.5883C96.6198 91.3174 96.8542 91.0258 97.073 90.7185H130.427C130.745 90.7185 131.052 90.656 131.349 90.5362C131.646 90.4164 131.906 90.2393 132.135 90.0154C132.359 89.7914 132.537 89.531 132.656 89.2341C132.781 88.9372 132.844 88.6299 132.844 88.3122C132.844 87.9945 132.781 87.6872 132.656 87.3904C132.537 87.0987 132.359 86.8383 132.135 86.6091C131.906 86.3851 131.646 86.2133 131.349 86.0883C131.052 85.9685 130.745 85.906 130.427 85.906H100.479C101.87 85.5726 103.073 84.9008 104.089 83.9008C104.818 83.1768 105.375 82.3383 105.771 81.3956C106.167 80.4476 106.365 79.4633 106.37 78.4372H130.417C130.729 78.432 131.031 78.3643 131.323 78.2393C131.609 78.1091 131.865 77.9372 132.083 77.7133C132.302 77.4841 132.469 77.2289 132.589 76.9372C132.708 76.6456 132.766 76.3435 132.766 76.031C132.766 75.7185 132.708 75.4164 132.589 75.1247C132.469 74.8383 132.302 74.5779 132.083 74.3539C131.865 74.1299 131.609 73.9529 131.323 73.8279C131.031 73.7029 130.729 73.6351 130.417 73.6247H106.083C107.667 70.9997 109.193 68.4581 110.651 66.0206H130.417C130.729 66.0101 131.031 65.9424 131.323 65.8174C131.609 65.6924 131.865 65.5154 132.083 65.2914C132.302 65.0674 132.469 64.8122 132.589 64.5206C132.708 64.2289 132.766 63.9268 132.766 63.6143C132.766 63.3018 132.708 62.9997 132.589 62.7081C132.469 62.4164 132.302 62.1612 132.083 61.9372C131.865 61.7133 131.609 61.5362 131.323 61.4112C131.031 61.2862 130.729 61.2185 130.417 61.2081H113.521C114.271 59.9476 115.01 58.7081 115.724 57.5101C116.474 56.2445 117.214 54.9945 117.953 53.7393H130.417C130.729 53.7289 131.031 53.6612 131.323 53.5362C131.609 53.4112 131.865 53.2341 132.083 53.0101C132.302 52.7862 132.469 52.531 132.589 52.2393C132.708 51.9476 132.766 51.6456 132.766 51.3331C132.766 51.0206 132.708 50.7185 132.589 50.4268C132.469 50.1351 132.302 49.8799 132.083 49.656C131.865 49.432 131.609 49.2549 131.323 49.1299C131.031 49.0049 130.729 48.9372 130.417 48.9268H120.797C121.88 47.0883 122.958 45.2549 124.026 43.4372C124.724 43.7758 125.458 43.9893 126.234 44.0726C127.005 44.1508 127.771 44.0987 128.526 43.9112C129.281 43.7237 129.979 43.4112 130.625 42.9737C131.266 42.5414 131.813 42.0049 132.266 41.3747L140.292 30.2081C140.99 29.2289 141.38 28.1403 141.469 26.9476H141.583V125.489Z" fill="#5271FF"/>
</g>
</svg>
