<svg width="309" height="187" viewBox="0 0 309 187" fill="none" xmlns="http://www.w3.org/2000/svg">
<path d="M0.568062 93.6073C0.568062 75.6057 4.46264 59.5947 12.2518 45.5743C20.0409 31.3807 30.8592 20.3893 44.7066 12.6002C58.727 4.63796 74.565 0.656836 92.2204 0.656836C113.857 0.656836 132.378 6.36888 147.783 17.793C163.188 29.217 173.487 44.7953 178.68 64.5279H129.868C126.233 56.9118 121.04 51.1132 114.29 47.1321C107.712 43.151 100.183 41.1604 91.7011 41.1604C78.0268 41.1604 66.9489 45.9204 58.4674 55.4405C49.9859 64.9606 45.7451 77.6829 45.7451 93.6073C45.7451 109.532 49.9859 122.254 58.4674 131.774C66.9489 141.294 78.0268 146.054 91.7011 146.054C100.183 146.054 107.712 144.064 114.29 140.083C121.04 136.101 126.233 130.303 129.868 122.687H178.68C173.487 142.419 163.188 157.998 147.783 169.422C132.378 180.673 113.857 186.298 92.2204 186.298C74.565 186.298 58.727 182.404 44.7066 174.614C30.8592 166.652 20.0409 155.661 12.2518 141.64C4.46264 127.62 0.568062 111.609 0.568062 93.6073Z" fill="#2C59FA"/>
<path d="M250.267 150.728H308.426V185H205.869V2.73395H250.267V150.728Z" fill="#F4F4F4"/>
</svg>
