<svg width="147" height="148" viewBox="0 0 147 148" fill="none" xmlns="http://www.w3.org/2000/svg">
<mask id="mask0_425_34" style="mask-type:luminance" maskUnits="userSpaceOnUse" x="50" y="22" width="46" height="126">
<path d="M50 22H95.3333V147.146H50V22Z" fill="white"/>
</mask>
<g mask="url(#mask0_425_34)">
<path d="M75 88.2861V80.6872C76.0104 80.5413 77 80.307 77.9688 79.9841C78.9427 79.6611 79.875 79.2549 80.7708 78.7653C81.6667 78.2757 82.5156 77.708 83.3125 77.0674C84.1094 76.4268 84.8385 75.7184 85.5104 74.9476C86.1771 74.1715 86.776 73.3486 87.2969 72.4684C87.8177 71.5882 88.2552 70.6716 88.6146 69.7132C88.974 68.7549 89.2448 67.7705 89.4219 66.7653C89.6042 65.7601 89.6979 64.7445 89.6979 63.7236V56.3747H87.25C84.9427 56.3747 82.724 56.8226 80.599 57.7184C78.474 58.6143 76.6094 59.8903 75 61.5413V47.5778L77.7448 44.833C78.3125 44.2601 78.8177 43.6403 79.2656 42.9736C79.7135 42.307 80.0885 41.5986 80.3958 40.8538C80.7031 40.1143 80.9323 39.3486 81.0885 38.557C81.25 37.7705 81.3281 36.9736 81.3281 36.1715C81.3281 35.3643 81.25 34.5674 81.0885 33.7809C80.9323 32.9893 80.7031 32.2236 80.3958 31.484C80.0885 30.7393 79.7135 30.0309 79.2656 29.3643C78.8177 28.6976 78.3125 28.0778 77.7448 27.5049L72.5469 22.3174L67.349 27.5153C66.7813 28.083 66.276 28.7028 65.8281 29.3695C65.3854 30.0413 65.0052 30.7445 64.6979 31.4893C64.3906 32.234 64.1615 32.9997 64.0052 33.7861C63.849 34.5778 63.7708 35.3747 63.7708 36.1768C63.7708 36.9788 63.849 37.7757 64.0052 38.5674C64.1615 39.3538 64.3906 40.1195 64.6979 40.8643C65.0052 41.6038 65.3854 42.3122 65.8281 42.9788C66.276 43.6507 66.7813 44.2705 67.349 44.8382L70.099 47.5882V54.2028C68.4896 52.5465 66.6198 51.2705 64.4948 50.3747C62.3698 49.4736 60.1563 49.0257 57.849 49.0205H55.3958V56.3747C55.401 57.3955 55.4896 58.4111 55.6719 59.4163C55.8542 60.4216 56.125 61.4007 56.4844 62.3591C56.8437 63.3174 57.2813 64.234 57.8021 65.1143C58.3229 65.9893 58.9219 66.8174 59.5885 67.5882C60.2604 68.3591 60.9896 69.0674 61.7865 69.708C62.5833 70.3486 63.4323 70.9163 64.3281 71.4059C65.224 71.8955 66.1563 72.3018 67.125 72.6247C68.0937 72.9476 69.0885 73.182 70.099 73.3278V88.2705C59.9948 88.7393 50.5 92.057 50.5 98.0101V137.224C50.5 143.656 61.5885 147.021 72.5469 147.021C83.5052 147.021 94.599 143.656 94.599 137.224V98.0205C94.599 92.0674 85.099 88.7497 75 88.2861ZM84.7969 61.5205V63.7236C84.7969 64.4216 84.7344 65.1195 84.6146 65.807C84.4948 66.4997 84.3177 67.1768 84.0833 67.833C83.849 68.4945 83.5573 69.1299 83.2135 69.7393C82.8698 70.3486 82.474 70.9268 82.0313 71.4684C81.5885 72.0101 81.1042 72.5101 80.5729 72.9736C80.0469 73.432 79.4844 73.8434 78.8802 74.2028C78.2813 74.5674 77.6563 74.8799 77.0052 75.1351C76.3542 75.3903 75.6823 75.5882 75 75.7288V73.5205C75 72.8226 75.0573 72.1247 75.1771 71.4372C75.2969 70.7445 75.474 70.0726 75.7135 69.4111C75.9479 68.7497 76.2396 68.1195 76.5833 67.5049C76.9271 66.8955 77.3177 66.3226 77.7604 65.7757C78.2031 65.2341 78.6927 64.7341 79.2188 64.2757C79.75 63.8174 80.3125 63.4059 80.9115 63.0413C81.5104 62.6768 82.1354 62.3695 82.7917 62.1143C83.4427 61.859 84.1094 61.6611 84.7969 61.5205ZM70.8177 30.9788L72.5469 29.2497L74.2813 30.9788C74.6198 31.3226 74.9219 31.6924 75.1927 32.0934C75.4583 32.4997 75.6875 32.9215 75.8698 33.3695C76.0521 33.8122 76.1927 34.2705 76.2865 34.7445C76.3802 35.2184 76.4271 35.6976 76.4271 36.1768C76.4271 36.6611 76.3802 37.1403 76.2865 37.6143C76.1927 38.083 76.0521 38.5465 75.8698 38.9893C75.6875 39.4372 75.4583 39.8591 75.1927 40.2601C74.9219 40.6611 74.6198 41.0361 74.2813 41.3747L72.5469 43.1091L70.8177 41.3747C70.474 41.0361 70.1719 40.6611 69.901 40.2601C69.6354 39.8591 69.4115 39.4372 69.224 38.9893C69.0417 38.5465 68.901 38.083 68.8073 37.6143C68.7135 37.1403 68.6667 36.6611 68.6667 36.1768C68.6667 35.6976 68.7135 35.2184 68.8073 34.7445C68.901 34.2705 69.0417 33.8122 69.224 33.3695C69.4115 32.9215 69.6354 32.4997 69.901 32.0934C70.1719 31.6924 70.474 31.3226 70.8177 30.9788ZM60.2969 56.3747V54.1663C60.9844 54.307 61.651 54.5049 62.3073 54.7653C62.9583 55.0205 63.5833 55.3278 64.1823 55.6924C64.7813 56.0518 65.3437 56.4632 65.875 56.9268C66.4063 57.3851 66.8906 57.8851 67.3333 58.4268C67.776 58.9684 68.1719 59.5465 68.5156 60.1559C68.8594 60.7653 69.1458 61.4007 69.3854 62.0622C69.6198 62.7236 69.7969 63.3955 69.9167 64.0882C70.0365 64.7757 70.099 65.4736 70.099 66.1716V68.3799C69.4115 68.2393 68.7396 68.0361 68.0885 67.7809C67.4375 67.5257 66.8125 67.2184 66.2135 66.8538C65.6146 66.4945 65.0469 66.083 64.5208 65.6195C63.9896 65.1611 63.5052 64.6611 63.0625 64.1195C62.6198 63.5778 62.224 62.9997 61.8802 62.3903C61.5365 61.7809 61.2448 61.1455 61.0104 60.4841C60.776 59.8226 60.599 59.1507 60.4792 58.458C60.3594 57.7705 60.2969 57.0726 60.2969 56.3747ZM72.5469 142.125C61.4063 142.125 55.3958 138.646 55.3958 137.224V133.791C60.849 136.255 66.5677 137.401 72.5469 137.224C78.526 137.401 84.2448 136.255 89.6979 133.791V137.224C89.6979 138.646 83.6875 142.125 72.5469 142.125ZM72.5469 132.323C61.4063 132.323 55.3958 128.849 55.3958 127.422V123.994C60.849 126.458 66.5677 127.599 72.5469 127.422C78.526 127.599 84.2448 126.458 89.6979 123.994V127.422C89.6979 128.849 83.6875 132.323 72.5469 132.323ZM72.5469 122.521C61.4063 122.521 55.3958 119.047 55.3958 117.625V114.192C60.849 116.656 66.5677 117.802 72.5469 117.625C78.526 117.802 84.2448 116.656 89.6979 114.192V117.625C89.6979 119.047 83.6875 122.521 72.5469 122.521ZM72.5469 112.724C61.4063 112.724 55.3958 109.244 55.3958 107.823V104.396C60.849 106.859 66.5677 108 72.5469 107.823C78.526 108 84.2448 106.859 89.6979 104.396V107.823C89.6979 109.244 83.6875 112.724 72.5469 112.724ZM72.5469 102.922C61.4063 102.922 55.3958 99.4476 55.3958 98.0205C55.3958 96.708 60.5417 93.6455 70.099 93.1872V98.0205H75V93.1872C84.5521 93.6455 89.6979 96.708 89.6979 98.0205C89.6979 99.4476 83.6875 102.922 72.5469 102.922Z" fill="#5271FF"/>
</g>
<mask id="mask1_425_34" style="mask-type:luminance" maskUnits="userSpaceOnUse" x="101" y="0" width="46" height="147">
<path d="M101 0H146.38V147H101V0Z" fill="white"/>
</mask>
<g mask="url(#mask1_425_34)">
<path d="M126.781 68.5365V53.5938C127.792 53.4479 128.781 53.2135 129.755 52.8906C130.724 52.5677 131.656 52.1615 132.552 51.6719C133.453 51.1771 134.297 50.6146 135.094 49.974C135.891 49.3281 136.625 48.625 137.292 47.849C137.964 47.0781 138.557 46.25 139.078 45.3698C139.599 44.4948 140.042 43.5729 140.396 42.6146C140.755 41.6563 141.026 40.6771 141.208 39.6719C141.391 38.6667 141.479 37.651 141.479 36.625V29.276H139.031C136.724 29.276 134.51 29.724 132.38 30.625C130.255 31.5208 128.391 32.7917 126.781 34.4479V30.2813L129.526 27.5365C134.307 22.7604 134.307 10.0885 129.526 5.3125L124.333 0.125L119.135 5.32292C114.359 10.099 114.359 22.7656 119.135 27.5469L121.88 30.2917V44.2552C120.271 42.6042 118.406 41.3281 116.281 40.4271C114.156 39.526 111.938 39.0781 109.63 39.0781H107.182V46.4271C107.182 47.4479 107.276 48.4635 107.458 49.4688C107.641 50.474 107.911 51.4531 108.266 52.4115C108.625 53.3698 109.063 54.2865 109.589 55.1667C110.109 56.0469 110.703 56.8698 111.375 57.6406C112.042 58.4167 112.776 59.1198 113.573 59.7604C114.365 60.401 115.214 60.9688 116.109 61.4583C117.005 61.9479 117.938 62.3542 118.911 62.6771C119.88 63 120.87 63.2344 121.88 63.3802V68.526C111.781 68.9896 102.281 72.3125 102.281 78.2656V137.078C102.281 143.51 113.37 146.875 124.333 146.875C135.292 146.875 146.38 143.51 146.38 137.078V78.276C146.38 72.3229 136.88 69.0052 126.781 68.5365ZM136.583 34.4219V36.625C136.578 37.3281 136.521 38.026 136.401 38.7135C136.281 39.4063 136.104 40.0781 135.865 40.7396C135.63 41.401 135.344 42.0313 134.995 42.6458C134.651 43.2552 134.26 43.8281 133.818 44.375C133.375 44.9167 132.885 45.4167 132.359 45.875C131.828 46.3333 131.266 46.7448 130.667 47.1094C130.068 47.474 129.443 47.7813 128.786 48.0365C128.135 48.2917 127.469 48.4896 126.781 48.6302V46.4271C126.781 45.7292 126.844 45.0312 126.964 44.3438C127.083 43.651 127.26 42.974 127.495 42.3177C127.729 41.6563 128.021 41.0208 128.365 40.4115C128.708 39.8021 129.104 39.224 129.547 38.6823C129.99 38.1406 130.474 37.6406 131.005 37.1771C131.531 36.7188 132.099 36.3073 132.698 35.9427C133.297 35.5833 133.922 35.2708 134.573 35.0156C135.224 34.7604 135.896 34.5625 136.583 34.4219ZM122.599 8.78646L124.333 7.05208L126.063 8.78646C128.922 11.6458 128.922 21.224 126.063 24.0833L124.333 25.8125L122.599 24.0833C119.74 21.224 119.74 11.6354 122.599 8.78646ZM112.083 46.4271V44.224C112.766 44.3646 113.438 44.5625 114.089 44.8177C114.74 45.0729 115.365 45.3802 115.964 45.7448C116.568 46.1094 117.13 46.5208 117.656 46.9792C118.187 47.4375 118.672 47.9375 119.115 48.4844C119.557 49.026 119.953 49.599 120.297 50.2135C120.641 50.8229 120.932 51.4583 121.167 52.1146C121.401 52.776 121.578 53.4531 121.698 54.1406C121.818 54.8333 121.88 55.526 121.88 56.2292V58.4323C121.193 58.2917 120.526 58.0938 119.875 57.8385C119.219 57.5833 118.594 57.2708 117.995 56.9115C117.396 56.5469 116.833 56.1354 116.302 55.6771C115.776 55.2188 115.286 54.7135 114.844 54.1719C114.401 53.6302 114.01 53.0521 113.667 52.4427C113.323 51.8333 113.031 51.1979 112.797 50.5365C112.557 49.8802 112.38 49.2031 112.26 48.5156C112.141 47.8229 112.083 47.1302 112.083 46.4271ZM121.88 73.4427V78.276H126.781V73.4427C136.339 73.901 141.479 76.9635 141.479 78.276C141.479 79.7031 135.469 83.1771 124.333 83.1771C113.193 83.1771 107.182 79.7031 107.182 78.276C107.182 76.9635 112.328 73.901 121.88 73.4427ZM124.333 141.979C113.193 141.979 107.182 138.5 107.182 137.078V133.646C112.635 136.109 118.349 137.255 124.333 137.078C130.313 137.255 136.026 136.109 141.479 133.646V137.078C141.479 138.5 135.469 141.979 124.333 141.979ZM124.333 132.177C113.193 132.177 107.182 128.703 107.182 127.276V123.849C112.635 126.313 118.349 127.453 124.333 127.276C130.313 127.453 136.026 126.313 141.479 123.849V127.276C141.479 128.703 135.469 132.177 124.333 132.177ZM124.333 122.375C113.193 122.375 107.182 118.901 107.182 117.479V114.047C112.635 116.51 118.349 117.656 124.333 117.479C130.313 117.656 136.026 116.51 141.479 114.047V117.479C141.479 118.901 135.469 122.375 124.333 122.375ZM124.333 112.578C113.193 112.578 107.182 109.099 107.182 107.677V104.25C112.635 106.714 118.349 107.854 124.333 107.677C130.313 107.854 136.026 106.714 141.479 104.25V107.677C141.479 109.099 135.469 112.578 124.333 112.578ZM124.333 102.776C113.193 102.776 107.182 99.3021 107.182 97.875V94.4479C112.635 96.9115 118.349 98.0573 124.333 97.875C130.313 98.0573 136.026 96.9115 141.479 94.4479V97.875C141.479 99.3021 135.469 102.776 124.333 102.776ZM124.333 92.9792C113.193 92.9792 107.182 89.5 107.182 88.0781V84.6458C112.635 87.1094 118.349 88.2552 124.333 88.0781C130.313 88.2552 136.026 87.1094 141.479 84.6458V88.0781C141.479 89.5 135.469 92.9792 124.333 92.9792Z" fill="#5271FF"/>
</g>
<mask id="mask2_425_34" style="mask-type:luminance" maskUnits="userSpaceOnUse" x="0" y="37" width="45" height="111">
<path d="M0 37H44.2865V147.479H0V37Z" fill="white"/>
</mask>
<g mask="url(#mask2_425_34)">
<path d="M24.5 98.417V95.7243C25.5104 95.5785 26.5052 95.3441 27.474 95.0212C28.4427 94.6982 29.375 94.2868 30.276 93.7972C31.1719 93.3076 32.0156 92.7451 32.8125 92.0993C33.6094 91.4587 34.3438 90.7503 35.0104 89.9795C35.6823 89.2087 36.276 88.3805 36.7969 87.5003C37.3229 86.6201 37.7604 85.7035 38.1198 84.7451C38.474 83.7868 38.7448 82.8076 38.9271 81.8024C39.1094 80.792 39.1979 79.7816 39.2031 78.7555V71.4066H36.75C34.4427 71.4066 32.2292 71.8545 30.1042 72.7503C27.9792 73.6514 26.1094 74.9222 24.5 76.5785V62.6097L27.2448 59.8649C27.8125 59.2972 28.3229 58.6774 28.7656 58.0055C29.2135 57.3389 29.5885 56.6305 29.8958 55.891C30.2031 55.1462 30.4375 54.3805 30.5938 53.5941C30.75 52.8024 30.8281 52.0055 30.8281 51.2035C30.8281 50.4014 30.75 49.6045 30.5938 48.8128C30.4375 48.0264 30.2031 47.2607 29.8958 46.516C29.5885 45.7712 29.2135 45.068 28.7656 44.3962C28.3229 43.7295 27.8125 43.1097 27.2448 42.542L22.0521 37.3545L16.8542 42.5524C16.2865 43.1201 15.7813 43.7399 15.3333 44.4066C14.8854 45.0785 14.5104 45.7816 14.2031 46.5264C13.8958 47.2712 13.6667 48.0368 13.5052 48.8232C13.349 49.6149 13.2708 50.4066 13.2708 51.2139C13.2708 52.016 13.349 52.8128 13.5052 53.6045C13.6667 54.391 13.8958 55.1566 14.2031 55.9014C14.5104 56.641 14.8854 57.3493 15.3333 58.016C15.7813 58.6878 16.2865 59.3076 16.8542 59.8753L19.599 62.6201V69.2347C17.9948 67.5837 16.125 66.3076 14 65.4066C11.875 64.5055 9.65625 64.0576 7.34896 64.0576H4.90104V71.4066C4.90104 72.4274 4.99479 73.443 5.17708 74.4482C5.35938 75.4535 5.63021 76.4326 5.98438 77.391C6.34375 78.3493 6.78646 79.266 7.30729 80.1462C7.82813 81.0264 8.42187 81.8493 9.09375 82.6201C9.76042 83.3962 10.4948 84.0993 11.2917 84.7399C12.0885 85.3805 12.9323 85.9482 13.8281 86.4378C14.7292 86.9274 15.6615 87.3337 16.6302 87.6566C17.599 87.9795 18.5885 88.2139 19.599 88.3597V98.4066C9.5 98.8857 0 102.203 0 108.157V137.558C0 143.99 11.0938 147.354 22.0521 147.354C33.0104 147.354 44.099 143.99 44.099 137.558V108.157C44.099 102.203 34.6042 98.8857 24.5 98.417ZM34.3021 76.5524V78.7555C34.3021 79.4587 34.2396 80.1514 34.1198 80.8441C34 81.5316 33.8229 82.2087 33.5885 82.8701C33.349 83.5264 33.0625 84.1618 32.7188 84.7712C32.375 85.3857 31.9792 85.9587 31.5365 86.5003C31.0938 87.0472 30.6094 87.5472 30.0781 88.0055C29.5469 88.4639 28.9844 88.8753 28.3854 89.2399C27.7865 89.6045 27.1615 89.9118 26.5104 90.167C25.8542 90.4222 25.1875 90.6201 24.5 90.7607V88.5576C24.5 87.8545 24.5625 87.1618 24.6823 86.4691C24.8021 85.7816 24.9792 85.1045 25.2135 84.4482C25.4479 83.7868 25.7396 83.1514 26.0833 82.542C26.4271 81.9326 26.8229 81.3545 27.2656 80.8128C27.7083 80.2712 28.1927 79.766 28.724 79.3076C29.25 78.8493 29.8177 78.4378 30.4167 78.0732C31.0156 77.7139 31.6406 77.4014 32.2917 77.1462C32.9427 76.891 33.6146 76.693 34.3021 76.5524ZM20.3177 46.016L22.0521 44.2816L23.7813 46.016C24.125 46.3545 24.4271 46.7295 24.6927 47.1305C24.9635 47.5316 25.1875 47.9535 25.375 48.4014C25.5573 48.8493 25.6979 49.3076 25.7917 49.7816C25.8854 50.2503 25.9323 50.7295 25.9323 51.2139C25.9323 51.693 25.8854 52.1722 25.7917 52.6462C25.6979 53.1201 25.5573 53.5785 25.375 54.0264C25.1875 54.4691 24.9635 54.8962 24.6927 55.2972C24.4271 55.6982 24.125 56.068 23.7813 56.4118L22.0521 58.141L20.3177 56.4118C19.9792 56.068 19.6719 55.6982 19.4063 55.2972C19.1406 54.8962 18.9115 54.4691 18.7292 54.0264C18.5469 53.5785 18.4063 53.1201 18.3125 52.6462C18.2188 52.1722 18.1719 51.693 18.1719 51.2139C18.1719 50.7295 18.2188 50.2503 18.3125 49.7816C18.4063 49.3076 18.5469 48.8493 18.7292 48.4014C18.9115 47.9535 19.1406 47.5316 19.4063 47.1305C19.6719 46.7295 19.9792 46.3545 20.3177 46.016ZM9.80208 71.4066V69.2035C10.4896 69.3441 11.1563 69.542 11.8073 69.7972C12.4583 70.0524 13.0885 70.3597 13.6875 70.7243C14.2865 71.0889 14.849 71.5003 15.3802 71.9587C15.9063 72.417 16.3906 72.917 16.8385 73.4639C17.2813 74.0055 17.6719 74.5785 18.0156 75.193C18.3594 75.8024 18.651 76.4378 18.8854 77.0941C19.1198 77.7555 19.3021 78.4326 19.4219 79.1201C19.5417 79.8128 19.599 80.5055 19.599 81.2087V83.4118C18.9167 83.2712 18.2448 83.0732 17.5938 82.818C16.9427 82.5628 16.3125 82.2503 15.7135 81.891C15.1146 81.5264 14.5521 81.1149 14.0208 80.6566C13.4948 80.1982 13.0104 79.693 12.5677 79.1514C12.125 78.6097 11.7292 78.0316 11.3854 77.4222C11.0417 76.8128 10.75 76.1774 10.5156 75.516C10.2813 74.8597 10.1042 74.1826 9.97917 73.4951C9.85938 72.8024 9.80208 72.1097 9.80208 71.4066ZM22.0521 142.459C10.9115 142.459 4.90104 138.979 4.90104 137.558V134.125C10.3542 136.589 16.0677 137.735 22.0521 137.558C28.0313 137.735 33.75 136.589 39.2031 134.125V137.558C39.2031 138.979 33.1927 142.459 22.0521 142.459ZM22.0521 132.657C10.9115 132.657 4.90104 129.183 4.90104 127.756V124.328C10.3542 126.792 16.0677 127.933 22.0521 127.756C28.0313 127.933 33.75 126.792 39.2031 124.328V127.756C39.2031 129.183 33.1927 132.657 22.0521 132.657ZM22.0521 122.854C10.9115 122.854 4.90104 119.381 4.90104 117.959V114.526C10.3542 116.99 16.0677 118.136 22.0521 117.959C28.0313 118.136 33.75 116.99 39.2031 114.526V117.959C39.2031 119.381 33.1927 122.854 22.0521 122.854ZM22.0521 113.058C10.9115 113.058 4.90104 109.578 4.90104 108.157C4.90104 106.844 10.0469 103.782 19.599 103.323V108.157H24.5V103.323C34.0573 103.782 39.2031 106.844 39.2031 108.157C39.2031 109.578 33.1927 113.058 22.0521 113.058Z" fill="#5271FF"/>
</g>
</svg>
