<svg xmlns="http://www.w3.org/2000/svg" xmlns:xlink="http://www.w3.org/1999/xlink" version="1.1" x="0px" y="0px" viewBox="0 0 100 125" enable-background="new 0 0 100 100" xml:space="preserve"><path d="M78.725,55.99c-0.209-0.928-0.357-1.836-0.877-3.869c-0.559-2.832-2.283-4.68-5.104-4.68c-1.282,0-2.438,0.486-3.331,1.264  c-0.04,0.025-0.084,0.035-0.12,0.063c-0.021-0.159-0.045-0.332-0.06-0.48c-0.424-2.391-2.498-4.211-5.017-4.211  c-1.635,0-3.075,0.785-4.007,1.984c-0.051-0.149-0.102-0.307-0.132-0.416c-0.563-2.209-2.552-3.849-4.931-3.849  c-2.123,0-3.938,1.295-4.71,3.14c-0.37-4.693-0.723-9.45-1.033-15.736c-0.206-4.183-0.376-7.571-0.6-10.315  c1.903-1.401,3.146-3.651,3.146-6.191C51.949,8.451,48.498,5,44.256,5c-4.242,0-7.693,3.451-7.693,7.692  c0,2.97,1.694,5.547,4.165,6.828c0.011,6.39,0.039,25.322-0.004,32.892c-0.03,5.255,0.169,5.973-0.588,6.931  c-0.421,0.53-3.563,1.398-5.105-0.838c-2.082-3.016-2.999-4.771-3.775-7.071c-1.568-4.655-5.488-7.343-7.579-7.499  c-0.942-0.07-0.97,0.034-1.647,0.318c-1.536,0.646-2.385,2.421-0.374,4.68c1.741,1.953,2.462,7.252,4.015,10.848  c2.523,5.847,4.02,7.109,6.912,11.699c2.104,3.328,3.41,3.694,5.14,7.563c1.441,3.218,1.64,2.933,2.428,4.253  c0.607,1.021,1.899,2.807,2.856,3.883c0.225,0.252,0.504,0.812,0.753,1.396c0.319,0.732,0.982,3.604,1.451,4.322  C46.038,94.164,47.459,95,49.08,95h19.958c2.553,0,4.622-2.072,4.622-4.626c0-0.073-0.02-0.14-0.02-0.208l0.084-2.602  c0,0-0.109-1.705,1.172-4.893c2.871-7.127,3.471-6.424,4.293-12.908C80.04,63.064,79.049,57.441,78.725,55.99z M43.581,8.855  c-3.396,0.222-2.896,7.956-2.86,8.461c-1.395-1.068-2.311-2.734-2.311-4.624c0-3.224,2.623-5.846,5.847-5.846  c3.224,0,5.847,2.622,5.847,5.846c0,1.503-0.585,2.861-1.521,3.897C47.915,10.621,46.733,8.651,43.581,8.855z"/><path d="M53.662,14.385l6.785-0.008c0.316,0.002,0.576,0.242,0.574,0.537l0.001,1.677c-0.001,0.294,0.198,0.378,0.439,0.188  l6.161-4.002c0.242-0.192,0.242-0.507,0.002-0.699l-6.164-4.001c-0.24-0.191-0.439-0.108-0.438,0.19L61.022,9.94  c0.001,0.295-0.261,0.539-0.577,0.537l-6.785,0.006v0.006c-0.316,0.002-0.574,0.244-0.576,0.536l0.002,2.824  C53.085,14.145,53.345,14.387,53.662,14.385z"/><path d="M27.047,16.78c0.241,0.189,0.44,0.105,0.439-0.188l0.001-1.677c-0.002-0.295,0.258-0.535,0.574-0.537l6.785,0.008  c0.317,0.002,0.577-0.24,0.576-0.536l0.002-2.824c-0.002-0.292-0.26-0.534-0.576-0.536v-0.006l-6.785-0.006  c-0.316,0.002-0.578-0.242-0.577-0.537l-0.001-1.672c0.002-0.299-0.197-0.382-0.438-0.19l-6.164,4.001  c-0.24,0.192-0.24,0.507,0.002,0.699L27.047,16.78z"/><text x="0" y="115" fill="#000000" font-size="5px" font-weight="bold" font-family="'Helvetica Neue', Helvetica, Arial-Unicode, Arial, Sans-serif">Created by TMD</text><text x="0" y="120" fill="#000000" font-size="5px" font-weight="bold" font-family="'Helvetica Neue', Helvetica, Arial-Unicode, Arial, Sans-serif">from the Noun Project</text></svg>